<svg xmlns="http://www.w3.org/2000/svg" width="320" height="73" viewBox="0 0 320 73" version="1.1"><path d="M 31.272 41 C 31.272 43.475, 31.467 44.487, 31.706 43.250 C 31.944 42.013, 31.944 39.987, 31.706 38.750 C 31.467 37.513, 31.272 38.525, 31.272 41" stroke="none" fill="#0c140c" fill-rule="evenodd"/><path d="M 254.389 7.765 C 253.777 8.169, 252.772 11.402, 252.153 14.949 C 250.190 26.220, 246.001 26.306, 245 15.096 C 244.516 9.675, 244.408 9.500, 241.541 9.500 C 238.967 9.500, 238.486 9.955, 237.843 13 C 236.951 17.227, 238.287 22.823, 241.015 26.292 L 243.024 28.846 240.762 32.673 C 238.736 36.101, 238.469 38.031, 238.207 51.192 C 237.928 65.203, 238.011 65.935, 239.995 66.997 C 241.139 67.610, 242.909 67.846, 243.928 67.523 C 245.611 66.989, 245.774 65.732, 245.725 53.718 C 245.653 36.493, 248.402 27.245, 250.478 37.726 C 250.889 39.802, 251.513 47.078, 251.863 53.895 C 252.391 64.170, 252.799 66.479, 254.250 67.390 C 255.526 68.192, 256.474 68.187, 257.750 67.372 C 259.281 66.394, 259.461 64.831, 259.187 54.877 C 258.849 42.584, 257.509 32.788, 255.790 30.036 C 254.952 28.693, 255.188 27.663, 256.851 25.404 C 259.521 21.779, 260.927 10.822, 259.018 8.521 C 257.644 6.866, 256.124 6.618, 254.389 7.765 M 18 11.357 C 9.856 15.726, 9.487 17.125, 9.589 43.203 C 9.655 60.103, 10.006 66.302, 10.961 67.453 C 12.447 69.244, 12.954 69.315, 15 68.020 C 16.260 67.223, 16.445 64.351, 16.155 50.036 L 15.810 33 20.509 33 L 25.207 33 24.494 49.287 C 23.876 63.409, 23.988 65.746, 25.342 66.869 C 26.201 67.582, 27.713 68.011, 28.702 67.822 C 30.265 67.524, 30.565 66.045, 31 56.490 C 31.275 50.445, 31.500 37.400, 31.500 27.500 L 31.500 9.500 27 9.221 C 23.757 9.020, 21.243 9.617, 18 11.357 M 75.935 9.750 C 75.899 10.162, 75.923 22.875, 75.988 38 C 76.074 57.918, 76.437 65.811, 77.303 66.627 C 78.838 68.072, 94.075 69.190, 96.002 67.999 C 97.202 67.257, 97.413 64.356, 97.180 51.798 C 96.921 37.795, 96.687 36.084, 94.410 31.583 C 92.766 28.334, 92.287 26.441, 92.997 26.002 C 94.640 24.987, 95.292 18.838, 94.088 15.704 C 92.753 12.228, 86.178 9.053, 80.250 9.022 C 77.912 9.010, 75.971 9.338, 75.935 9.750 M 109.500 10.412 C 105.804 12.054, 102.739 15.449, 101.016 19.809 C 99.398 23.904, 100.434 64.613, 102.211 66.754 C 102.999 67.704, 105.713 67.993, 111.903 67.787 C 119.914 67.520, 120.521 67.349, 120.815 65.285 C 121.054 63.606, 120.499 62.912, 118.518 62.415 C 117.082 62.055, 115.665 62.002, 115.368 62.298 C 114.624 63.043, 108.666 60.917, 107.765 59.586 C 107.361 58.989, 107.024 52.710, 107.015 45.633 C 107.001 33.357, 107.090 32.790, 108.954 33.278 C 111.871 34.041, 114.387 31.796, 113.555 29.174 C 113.053 27.593, 112.065 27, 109.933 27 C 107.557 27, 107.001 26.573, 107.004 24.750 C 107.006 23.512, 107.892 21.050, 108.973 19.277 C 110.851 16.196, 112.440 15.404, 117.990 14.780 C 120.785 14.466, 122.005 11.252, 119.848 9.885 C 117.873 8.633, 112.936 8.884, 109.500 10.412 M 164 9.722 C 160.509 11.033, 156.926 14.350, 155.272 17.802 C 153.709 21.064, 153.537 24.089, 153.812 43.472 C 153.988 55.893, 154.551 65.959, 155.107 66.629 C 156.379 68.162, 171.839 68.379, 173.635 66.888 C 176.314 64.665, 173.465 62.286, 167.534 61.794 C 164.491 61.542, 161.832 61.148, 161.625 60.918 C 161.417 60.688, 160.945 54.281, 160.575 46.679 C 159.946 33.750, 160.019 32.870, 161.701 33.044 C 165.279 33.415, 166.798 32.970, 167.410 31.373 C 168.310 29.028, 166.208 27, 162.878 27 C 159.727 27, 159.403 26.011, 161.029 21.348 C 162.190 18.015, 166.585 15, 170.282 15 C 171.642 15, 173.356 14.276, 174.090 13.392 C 175.224 12.025, 175.138 11.574, 173.521 10.392 C 171.616 8.999, 166.821 8.661, 164 9.722 M 184.334 11.039 C 177.216 14.605, 176.650 16.903, 176.466 43 C 176.379 55.375, 176.674 66.232, 177.123 67.126 C 177.817 68.511, 179.313 68.676, 187.219 68.236 C 192.324 67.952, 196.797 67.258, 197.160 66.695 C 198.416 64.749, 196.857 50.571, 195.246 49.289 C 192.566 47.156, 189.830 49.532, 190.026 53.823 C 190.389 61.763, 190.287 62, 186.529 62 L 183.058 62 183.326 41.635 C 183.553 24.331, 183.853 20.873, 185.320 18.635 C 187.615 15.132, 189.611 15.303, 190.364 19.068 C 190.892 21.712, 191.358 22.091, 193.739 21.818 C 196.412 21.510, 196.500 21.308, 196.500 15.500 L 196.500 9.500 192.500 9.226 C 189.970 9.052, 186.969 9.719, 184.334 11.039 M 272.223 10.636 C 270.420 11.538, 267.865 13.560, 266.546 15.128 C 264.085 18.053, 261.714 26.929, 262.440 30.500 C 262.664 31.600, 262.881 40.247, 262.923 49.715 C 262.996 66.043, 263.106 66.986, 265.064 68.034 C 266.622 68.868, 267.510 68.821, 268.688 67.844 C 270.042 66.720, 270.155 64.302, 269.543 49.511 L 268.837 32.473 273.395 32.835 L 277.954 33.198 278.227 50.336 C 278.475 65.914, 278.664 67.506, 280.298 67.820 C 284.785 68.682, 284.962 67.478, 284.724 37.649 L 284.500 9.500 280 9.248 C 277.351 9.100, 274.152 9.671, 272.223 10.636 M 289.464 10.250 C 289.204 10.938, 289.106 23.826, 289.246 38.892 C 289.475 63.612, 289.669 66.390, 291.231 67.375 C 292.566 68.216, 293.347 68.081, 294.644 66.785 C 296.087 65.341, 296.314 62.831, 296.240 49.063 C 296.193 40.240, 296.524 32.794, 296.975 32.516 C 297.426 32.237, 299.191 32.288, 300.897 32.629 L 304 33.250 304 50.156 C 304 64.886, 304.211 67.144, 305.636 67.691 C 306.536 68.036, 307.998 67.860, 308.886 67.301 C 310.294 66.413, 310.540 62.794, 310.817 38.927 C 311.104 14.082, 310.977 11.456, 309.428 10.324 C 308.235 9.451, 307.166 9.376, 305.862 10.074 C 304.301 10.909, 304 12.278, 304 18.535 L 304 26 300.126 26 L 296.252 26 296.164 18.466 C 296.116 14.323, 295.808 10.498, 295.479 9.966 C 294.612 8.564, 290.020 8.780, 289.464 10.250 M 128.411 12.500 C 128.066 13.875, 128.052 16.071, 128.381 17.381 C 129.483 21.774, 135.905 21.208, 136.090 16.700 C 136.156 15.103, 136.445 15.419, 137.146 17.855 C 138.009 20.854, 138.428 21.164, 141.087 20.774 C 143.131 20.474, 143.740 20.660, 143.031 21.369 C 142.464 21.936, 142 23.236, 142 24.257 C 142 25.976, 141.835 25.998, 139.777 24.557 C 135.701 21.701, 128.897 23.453, 125.561 28.217 C 123.618 30.991, 123.619 31.476, 125.571 33.429 C 126.882 34.739, 126.903 35, 125.699 35 C 123.476 35, 122.159 64.587, 124.288 66.716 C 125.178 67.606, 126.585 67.949, 127.786 67.568 C 129.630 66.983, 129.855 65.739, 130.517 52.497 C 130.914 44.559, 130.985 37.403, 130.675 36.595 C 129.824 34.378, 132.954 34.164, 137.449 36.130 C 140.336 37.393, 141.906 37.586, 143.287 36.847 C 145.152 35.848, 145.162 34.193, 143.334 29.429 C 142.898 28.291, 143.043 27.909, 143.746 28.343 C 145.681 29.539, 149.919 27.171, 150.584 24.522 C 151.340 21.510, 149.387 18.665, 146.994 19.291 C 145.655 19.642, 145.362 18.955, 145.424 15.611 C 145.490 12.039, 145.194 11.457, 143.168 11.170 C 141.885 10.988, 139.959 11.632, 138.889 12.601 C 137.022 14.290, 136.880 14.273, 135.414 12.181 C 133.256 9.099, 129.218 9.283, 128.411 12.500 M 20.856 16.516 C 18.423 17.838, 16 22.395, 16 25.649 C 16 26.581, 17.379 27, 20.445 27 L 24.889 27 24.695 21.001 C 24.588 17.702, 24.275 15.020, 24 15.042 C 23.725 15.063, 22.310 15.726, 20.856 16.516 M 83 19.070 C 83 22.718, 83.233 23.106, 85.250 22.820 C 88.176 22.404, 88.861 18.368, 86.330 16.451 C 83.493 14.301, 83 14.689, 83 19.070 M 275.357 15.992 C 272.414 17.179, 270 20.888, 270 24.223 C 270 26.796, 270.293 27, 274 27 L 278 27 278 21 C 278 17.700, 277.887 15.029, 277.750 15.063 C 277.613 15.098, 276.536 15.516, 275.357 15.992 M 121.128 17.272 C 119.486 18.914, 119.744 21.463, 121.812 24.016 C 125.387 28.431, 130.852 23.475, 127.705 18.673 C 126.091 16.210, 122.875 15.525, 121.128 17.272 M 57.683 27.965 C 55.681 30.344, 55.069 30.623, 54.590 29.375 C 54.262 28.520, 54.247 27.410, 54.556 26.910 C 54.865 26.409, 54.754 26.001, 54.309 26.003 C 53.864 26.004, 52.600 27.357, 51.500 29.008 L 49.500 32.011 48.988 29.255 L 48.477 26.500 46.141 30.275 C 44.857 32.352, 44.055 34.700, 44.359 35.493 C 44.664 36.287, 44.482 37.202, 43.956 37.527 C 42.887 38.188, 42.674 42.988, 43.607 45.418 C 43.992 46.423, 45.430 47, 47.545 47 C 49.850 47, 51.889 47.924, 54.161 50 C 55.968 51.650, 58.080 53, 58.856 53 C 60.796 53, 64.180 48.911, 63.565 47.308 C 63.260 46.513, 63.809 46, 64.964 46 C 66.010 46, 67.085 45.212, 67.353 44.250 C 67.622 43.288, 68.164 41.387, 68.559 40.026 L 69.277 37.551 65.775 40.222 L 62.273 42.894 61.136 40.400 C 59.620 37.071, 59.699 36.206, 61.318 38.420 C 62.552 40.108, 62.741 40.116, 64.318 38.539 C 65.388 37.470, 66 35.245, 66 32.429 C 66 27.391, 65.579 27.091, 62.944 30.250 L 61.067 32.500 60.915 30 C 60.831 28.625, 60.836 26.938, 60.925 26.250 C 61.175 24.326, 60.400 24.736, 57.683 27.965 M 219.250 27.720 C 218.012 29.148, 217 31.362, 217 32.639 C 217 34.360, 216.288 35.118, 214.250 35.564 C 212.738 35.896, 210.825 36.381, 210 36.643 C 209.013 36.956, 208.842 36.785, 209.500 36.144 C 210.050 35.608, 211.625 35.019, 213 34.835 C 215.199 34.540, 215.532 33.958, 215.763 30 L 216.025 25.500 213.561 28.250 C 210.644 31.504, 209.626 31.754, 210.500 29 C 210.864 27.853, 210.680 27, 210.067 27 C 209.480 27, 209 27.482, 209 28.071 C 209 28.661, 208.286 29.857, 207.414 30.729 C 206.526 31.617, 206.020 33.325, 206.265 34.608 C 206.522 35.953, 206.145 37.114, 205.352 37.419 C 202.357 38.568, 204.603 47.255, 207.813 46.937 C 211.430 46.578, 212.815 47.107, 215.843 50 C 217.569 51.650, 219.629 53, 220.419 53 C 222.468 53, 225 50.197, 225 47.929 C 225 46.867, 225.685 46, 226.525 46 C 228.031 46, 230 42.257, 230 39.395 C 230 37.836, 229.503 38.112, 225.027 42.151 C 223.300 43.710, 223.174 43.642, 222.776 40.925 C 222.449 38.702, 222.639 38.285, 223.610 39.091 C 225.710 40.834, 228.363 35.747, 227.566 31.502 L 226.909 27.996 224.545 30.546 L 222.181 33.097 222.571 29.049 C 223.021 24.371, 222.375 24.113, 219.250 27.720 M 83 46.500 L 83 62 87.034 62 C 90.878 62, 91.047 61.870, 90.616 59.250 C 90.368 57.737, 90.127 51.867, 90.082 46.205 C 90.006 36.663, 89.820 35.729, 87.545 33.455 C 86.195 32.105, 84.620 31, 84.045 31 C 83.363 31, 83 36.384, 83 46.500 M 53.456 34.071 C 53.081 34.678, 51.942 34.956, 50.924 34.690 C 49.906 34.424, 48.588 34.791, 47.995 35.506 C 47.119 36.562, 47.718 36.626, 51.179 35.848 C 56.006 34.764, 56.546 34.455, 55.136 33.584 C 54.587 33.245, 53.831 33.464, 53.456 34.071 M 220.543 34.931 C 220.226 35.443, 220.425 36.144, 220.984 36.490 C 221.543 36.835, 222 36.416, 222 35.559 C 222 33.802, 221.400 33.544, 220.543 34.931 M 55.667 38.667 C 55.300 39.033, 55 39.798, 55 40.367 C 55 40.993, 55.466 40.934, 56.183 40.217 C 56.834 39.566, 57.134 38.801, 56.850 38.517 C 56.566 38.233, 56.033 38.300, 55.667 38.667 M 140.463 38.952 C 138.530 39.736, 138.469 40.252, 139.267 49.139 C 140.944 67.807, 141.843 70.009, 147.235 68.656 C 150.324 67.881, 151.687 64.976, 149.658 63.492 C 148.681 62.777, 147.815 58.693, 147.002 50.966 C 146.338 44.660, 145.590 39.163, 145.338 38.750 C 144.769 37.814, 143.102 37.883, 140.463 38.952 M 216.638 39.500 C 216.322 40.325, 216.499 41, 217.031 41 C 217.564 41, 218 40.325, 218 39.500 C 218 38.675, 217.823 38, 217.607 38 C 217.391 38, 216.955 38.675, 216.638 39.500" stroke="none" fill="#0c0c0c" fill-rule="evenodd"/></svg>